<svg width="21" height="22" fill="none" xmlns="http://www.w3.org/2000/svg"><path d="M6.7 13.319c-.3.615-.427 1.13-.435 1.164a.432.432 0 0 0 .194.47c.087.054 2.15 1.3 3.865.593a5.28 5.28 0 0 0 .4-.186c-1.46-.364-2.83-1.13-4.023-2.041ZM6.739 7.748c.003.003.151.123.348.317 1.597-1.138 3.471-1.985 5.432-1.985.433 0 .87.026 1.307.077-.224-.403-.598-.824-1.198-1.225-1.178-.785-2.699-.187-3.893.565a12.972 12.972 0 0 0-2.032 1.608c-.18.181-.166.48.036.643ZM5.513 12.313a11.45 11.45 0 0 1-.61-.614 1.296 1.296 0 0 1 0-1.73c.114-.128.343-.363.61-.614A7.008 7.008 0 0 1 3.925 7.64a.432.432 0 0 0-.665-.066c-.645.645-1 1.422-.973 2.133.027.748.027 1.507 0 2.254-.027.71.328 1.488.973 2.133.193.193.514.161.665-.066a7.01 7.01 0 0 1 1.588-1.715Z" fill="#78C0DE"/><path d="M15.35 14.081c-1.309-1.505-1.312-4.978-.004-6.49.015-.017.005-.007.203-.205a10.926 10.926 0 0 0-3.03-.442c-2.213 0-4.377 1.251-6.028 2.692a12.2 12.2 0 0 0-.945.91.432.432 0 0 0 0 .577c.368.41 1.13 1.116 1.951 1.712 1.255.909 2.705 1.642 4.236 1.838.006-.006.275.045.815.051.982-.003 1.996-.15 2.983-.433l-.182-.21Z" fill="#78C0DE"/><path d="M19.843 11.81c.204-.257.387-.589.412-.92.053-.726-.754-1.47-1.341-1.902-.73-.538-1.606-.98-2.447-1.297l-.477.477c-1.016 1.195-1.008 4.172.012 5.346l.419.484c1.164-.434 2.658-1.213 3.422-2.188Zm-3.14-1.34a.431.431 0 1 1 .824-.251.431.431 0 0 1-.825.252Z" fill="#78C0DE"/></svg>