<svg width="28" height="27" fill="none" xmlns="http://www.w3.org/2000/svg"><path d="M23.576 17.05c-2.197-3.213-4.566-6.738-10.105-5.254-2.469.662-4.112 1.935-5.024 3.892-.807 1.734-.952 3.771-1.1 5.711-.184 2.378 2.288 4.067 4.446 3.02 1.771-.859 4.173-2.15 8.026-2.428 1.485-.106 1.628-.098 2.012-.201 2.006-.538 2.976-2.944 1.745-4.74Z" fill="#FBDD7B"/><path d="M21.831 21.79c2.006-.538 2.976-2.944 1.745-4.74-2.197-3.213-4.566-6.738-10.105-5.254l2.888 10.777c2.774-.744 4.57-.541 5.472-.783Z" fill="#FECB3E"/><path d="m16.566 16.404-1.084.29-.291-1.084a.674.674 0 1 0-1.302.348l.29 1.085-1.084.29a.674.674 0 0 0 .349 1.302l1.084-.29.291 1.085a.674.674 0 0 0 1.302-.35l-.29-1.084 1.084-.29a.674.674 0 1 0-.349-1.302Z" fill="#FFF8E0"/><path d="m16.121 19.08-.29-1.084 1.084-.29a.674.674 0 1 0-.349-1.302l-1.084.29-.291-1.084a.674.674 0 0 0-.825-.477l1.279 4.773a.674.674 0 0 0 .476-.825Z" fill="#FFE799"/><path d="M21.277 6.212a2.473 2.473 0 0 0-1.747 3.026 2.474 2.474 0 0 0 3.026 1.747c1.316-.352 2.143-1.721 1.79-3.037-.353-1.316-1.753-2.088-3.07-1.736ZM16.42 8.916c1.512-.405 2.325-2.271 1.817-4.168-.508-1.897-2.146-3.107-3.658-2.702-1.512.405-2.325 2.272-1.817 4.169.508 1.897 2.146 3.106 3.658 2.701Z" fill="#FECB3E"/><path d="M9.478 10.777c1.511-.405 2.325-2.272 1.817-4.169-.509-1.897-2.146-3.106-3.658-2.701-1.512.405-2.325 2.271-1.817 4.168.508 1.897 2.146 3.107 3.658 2.702ZM3.92 10.863c-1.316.353-2.143 1.722-1.79 3.038.352 1.316 1.753 2.088 3.07 1.735a2.474 2.474 0 0 0 1.746-3.026 2.473 2.473 0 0 0-3.026-1.747Z" fill="#FBDD7B"/></svg>